# xmcd
#
# Track frame offsets: 
#        150
#        14647
#        29737
#        43855
#        57062
#        71557
#        86360
#        103645
#        134720
#        165098
#        181013
#        192355
#        216613
#        230856
#        253333
#        266726
#        280046
#        288346
#        301966
#        312036
#        327789
#
# Disc length: 4633 seconds
#
# Revision: 2
# Processed by: cddbd v1.5.2PL0 Copyright (c) Steve Scherf et al.
# Submitted via: ExactAudioCopyFreeDBPlugin 1.0
#
DISCID=3b121715
DTITLE=Son House - A Proper Introduction to Son House:  Delta Blues
DYEAR=2004
DGENRE=Blues
TTITLE0=My Black Mama, Pt. 1
TTITLE1=My Black Mama, Pt. 2
TTITLE2=Preachin' the Blues, Pt. 1
TTITLE3=Preachin' the Blues, Pt. 2
TTITLE4=Dry Spell Blues, Pt. 1
TTITLE5=Dry Spell Blues, Pt. 2
TTITLE6=Levee Camp Blues
TTITLE7=Government Fleet Blues
TTITLE8=Walking Blues
TTITLE9=Shetland Pony Blues
TTITLE10=Camp Hollers
TTITLE11=Delta Blues
TTITLE12=Special Rider Blues - 2
TTITLE13=Low Down Dirty Dog Blues
TTITLE14=Depot Blues
TTITLE15=American Defense
TTITLE16=Am I Right or Wrong?
TTITLE17=Walking Blues
TTITLE18=Country Farm Blues
TTITLE19=The Jinx Blues, Pt. 1
TTITLE20=The Jinx Blues, Pt. 2
EXTD=
EXTT0=
EXTT1=
EXTT2=
EXTT3=
EXTT4=
EXTT5=
EXTT6=
EXTT7=
EXTT8=
EXTT9=
EXTT10=
EXTT11=
EXTT12=
EXTT13=
EXTT14=
EXTT15=
EXTT16=
EXTT17=
EXTT18=
EXTT19=
EXTT20=
PLAYORDER=
